<?xml version="1.0" encoding="UTF-8" standalone="no"?>
<!-- Created with Inkscape (http://www.inkscape.org/) -->

<svg
   xmlns:dc="http://purl.org/dc/elements/1.1/"
   xmlns:cc="http://creativecommons.org/ns#"
   xmlns:rdf="http://www.w3.org/1999/02/22-rdf-syntax-ns#"
   xmlns:svg="http://www.w3.org/2000/svg"
   xmlns="http://www.w3.org/2000/svg"
   xmlns:xlink="http://www.w3.org/1999/xlink"
   xmlns:sodipodi="http://sodipodi.sourceforge.net/DTD/sodipodi-0.dtd"
   xmlns:inkscape="http://www.inkscape.org/namespaces/inkscape"
   width="640"
   height="480"
   viewBox="0 0 640 480"
   id="svg2"
   version="1.1"
   inkscape:version="0.91 r13725"
   style="shape-rendering:crispEdges"
   sodipodi:docname="menu_bg.svg"
   inkscape:export-filename="D:\Workspace\cpp\Marchewki\bin\image\menu_bg.png"
   inkscape:export-xdpi="90"
   inkscape:export-ydpi="90">
  <defs
     id="defs4">
    <linearGradient
       inkscape:collect="always"
       id="linearGradient4174">
      <stop
         style="stop-color:#1c150f;stop-opacity:1;"
         offset="0"
         id="stop4176" />
      <stop
         style="stop-color:#1c150f;stop-opacity:0;"
         offset="1"
         id="stop4178" />
    </linearGradient>
    <filter
       inkscape:collect="always"
       style="color-interpolation-filters:sRGB"
       id="filter4722"
       x="-0.099773321"
       width="1.1995466"
       y="-0.24380882"
       height="1.4876176">
      <feGaussianBlur
         inkscape:collect="always"
         stdDeviation="29.605357"
         id="feGaussianBlur4724" />
    </filter>
    <filter
       inkscape:collect="always"
       style="color-interpolation-filters:sRGB"
       id="filter4850"
       x="-0.072"
       width="1.144"
       y="-0.216"
       height="1.432">
      <feGaussianBlur
         inkscape:collect="always"
         stdDeviation="12.407143"
         id="feGaussianBlur4852" />
    </filter>
    <filter
       inkscape:collect="always"
       style="color-interpolation-filters:sRGB"
       id="filter4269"
       x="-0.042762931"
       width="1.0855259"
       y="-0.094083412"
       height="1.1881668">
      <feGaussianBlur
         inkscape:collect="always"
         stdDeviation="2.005589"
         id="feGaussianBlur4271" />
    </filter>
    <filter
       inkscape:collect="always"
       style="color-interpolation-filters:sRGB"
       id="filter4289"
       x="-0.045058664"
       width="1.0901173"
       y="-0.10807013"
       height="1.2161403">
      <feGaussianBlur
         inkscape:collect="always"
         stdDeviation="1.8363767"
         id="feGaussianBlur4291" />
    </filter>
    <filter
       inkscape:collect="always"
       style="color-interpolation-filters:sRGB"
       id="filter4324"
       x="-0.13058578"
       width="1.2611716"
       y="-0.038947587"
       height="1.0778952">
      <feGaussianBlur
         inkscape:collect="always"
         stdDeviation="0.54777144"
         id="feGaussianBlur4326" />
    </filter>
    <filter
       inkscape:collect="always"
       style="color-interpolation-filters:sRGB"
       id="filter4366"
       x="-0.2881452"
       width="1.5762904"
       y="-0.066453811"
       height="1.1329076">
      <feGaussianBlur
         inkscape:collect="always"
         stdDeviation="0.53108418"
         id="feGaussianBlur4368" />
    </filter>
    <filter
       height="1.0059185"
       y="-0.0029592584"
       width="1.0040371"
       x="-0.0020185267"
       id="filter4489"
       style="color-interpolation-filters:sRGB"
       inkscape:collect="always">
      <feGaussianBlur
         id="feGaussianBlur4491"
         stdDeviation="0.38755396"
         inkscape:collect="always" />
    </filter>
    <filter
       height="1.0497483"
       y="-0.024874158"
       width="1.051069"
       x="-0.02553449"
       id="filter4485"
       style="color-interpolation-filters:sRGB"
       inkscape:collect="always">
      <feGaussianBlur
         id="feGaussianBlur4487"
         stdDeviation="2.1508536"
         inkscape:collect="always" />
    </filter>
    <linearGradient
       inkscape:collect="always"
       xlink:href="#linearGradient4174"
       id="linearGradient4180"
       x1="306.79065"
       y1="315.57663"
       x2="303.4425"
       y2="469.01877"
       gradientUnits="userSpaceOnUse" />
  </defs>
  <sodipodi:namedview
     id="base"
     pagecolor="#ffffff"
     bordercolor="#666666"
     borderopacity="1.0"
     inkscape:pageopacity="0.0"
     inkscape:pageshadow="2"
     inkscape:zoom="1.4142136"
     inkscape:cx="295.17796"
     inkscape:cy="173.2199"
     inkscape:document-units="px"
     inkscape:current-layer="layer4"
     showgrid="false"
     units="px"
     inkscape:window-width="1920"
     inkscape:window-height="1151"
     inkscape:window-x="-8"
     inkscape:window-y="-8"
     inkscape:window-maximized="1" />
  <metadata
     id="metadata7">
    <rdf:RDF>
      <cc:Work
         rdf:about="">
        <dc:format>image/svg+xml</dc:format>
        <dc:type
           rdf:resource="http://purl.org/dc/dcmitype/StillImage" />
        <dc:title />
      </cc:Work>
    </rdf:RDF>
  </metadata>
  <g
     inkscape:label="Background"
     inkscape:groupmode="layer"
     id="layer1"
     transform="translate(0,-572.36216)"
     style="display:inline"
     sodipodi:insensitive="true">
    <rect
       style="opacity:0.9729996;fill:#000000;fill-opacity:1;stroke:none;stroke-width:15;stroke-miterlimit:4;stroke-dasharray:none;stroke-opacity:0.00026197;shape-rendering:crispEdges"
       id="rect4684"
       width="640"
       height="480"
       x="0"
       y="572.36218" />
  </g>
  <g
     inkscape:groupmode="layer"
     id="layer3"
     inkscape:label="Glow"
     style="display:inline"
     sodipodi:insensitive="true">
    <path
       transform="translate(0,-572.36216)"
       style="display:inline;fill:#ec301a;fill-opacity:0.57837836;fill-rule:evenodd;stroke:none;stroke-width:1px;stroke-linecap:butt;stroke-linejoin:miter;stroke-opacity:1;filter:url(#filter4722);shape-rendering:crispEdges"
       d="m 207.14286,866.64787 45,-34.28571 72.85714,-2.14285 80,13.57142 30,27.14286 185.71429,86.42858 -597.857147,-15.71426 z"
       id="path4712"
       inkscape:connector-curvature="0"
       sodipodi:nodetypes="cccccccc" />
    <path
       style="display:inline;fill:#ec9f1a;fill-opacity:0.57837836;fill-rule:evenodd;stroke:none;stroke-width:1px;stroke-linecap:butt;stroke-linejoin:miter;stroke-opacity:1;filter:url(#filter4850);shape-rendering:crispEdges"
       d="M 192.14285,385.71428 204.28571,320 l 82.85715,-32.14286 48.57143,-3.57142 42.14285,15.71427 45,17.85715 -24.28571,69.28572 z"
       id="path4804"
       inkscape:connector-curvature="0"
       sodipodi:nodetypes="cccccccc" />
  </g>
  <g
     inkscape:groupmode="layer"
     id="layer6"
     inkscape:label="Tentacles"
     sodipodi:insensitive="true">
    <g
       style="shape-rendering:crispEdges"
       id="layer2"
       inkscape:label="Tentacles"
       transform="matrix(0.61742679,0,0,0.61742679,133.74337,201.8788)">
      <path
         id="path4223"
         style="fill:#1b2a18;fill-opacity:1;fill-rule:nonzero;stroke:none;stroke-width:1;stroke-linecap:butt;stroke-linejoin:miter;stroke-miterlimit:21.79999924;stroke-dasharray:none;stroke-opacity:1;filter:url(#filter4489)"
         d="m 395,308.57143 c 0,0 -12.55546,-31.30688 -13.57143,-47.85714 -1.04814,-17.0743 2.07567,-34.61444 7.85714,-50.71429 2.9947,-8.33945 7.37396,-16.52421 13.57143,-22.85714 15.11016,-15.44042 33.90073,-29.64415 55,-34.28572 C 476.60471,148.73291 496.0445,163.02816 515,160 c 9.36038,-1.49533 19.29337,-5.16974 25.71429,-12.14286 5.51193,-5.98596 7.11955,-14.85057 8.57142,-22.85714 1.14702,-6.32541 0,-19.28571 0,-19.28571 0,0 7.62533,14.31443 7.85715,22.14285 0.2788,9.41494 -1.70212,20.01303 -7.85715,27.14286 -7.86752,9.11355 -21.02842,12.75587 -32.85714,15 -17.56913,3.3332 -36.14221,-6.85798 -53.57143,-2.85714 -17.7613,4.07707 -35.4164,13.11263 -47.85714,26.42857 -5.38117,5.75973 -7.54285,13.93898 -10,21.42857 -4.91991,14.99625 -10.40453,30.6856 -9.28571,46.42857 C 396.9314,278.55467 412.85714,310 412.85714,310 Z m -55.71429,0.71428 c 0,0 -4.98512,-36.58241 -5.71428,-55 -0.77258,-19.51433 -2.00738,-39.34643 1.42857,-58.57142 3.4972,-19.56769 7.71394,-40.26631 19.28571,-56.42858 9.98062,-13.93992 24.71564,-25.26598 40.71429,-31.42857 14.26298,-5.49402 31.18792,-8.325513 45.71429,-3.57143 12.83657,4.20106 25.51563,13.96261 30.71428,26.42858 5.23648,12.55667 4.578,29.32089 -2.85714,40.71428 -5.58764,8.56233 -16.9686,15.29545 -27.14286,14.28572 -9.76893,-0.9695 -19.63052,-9.29993 -22.85714,-18.57143 -2.88598,-8.29269 5.71428,-25.71429 5.71428,-25.71429 0,0 -3.35823,16.01812 0,22.85714 2.91777,5.94201 9.1141,11.63456 15.71429,12.14286 7.86267,0.60553 16.13267,-5.01008 20.71429,-11.42857 5.61728,-7.86937 8.50465,-19.56043 5,-28.57143 C 461.46778,125.51014 449.16473,118.06324 437.85714,115 c -12.74161,-3.45172 -27.29873,-0.52949 -39.28571,5 -12.85625,5.93047 -23.50898,16.83543 -31.42857,28.57143 -10.366,15.36132 -16.34645,33.84573 -19.28572,52.14286 -3.17417,19.75942 -0.38013,40.14692 2.14286,60 2.09019,16.44742 10.71429,48.57142 10.71429,48.57142 z m -52.85714,22.14287 c 0,0 12.82659,-69.7077 14.28572,-105 0.93566,-22.63102 1.22684,-45.72086 -3.57143,-67.85715 -4.55204,-21.00032 -10.52639,-34.71054 -23.57143,-51.78572 -9.19304,-12.033131 -30.77456,-21.309342 -36.42857,-35.357138 -4.86677,-12.091838 -1.49177,-28.219317 6.42857,-38.571429 7.63918,-9.984631 21.72027,-15.315157 34.28572,-15.714286 18.60625,-0.591009 37.30367,8.952905 47.8497,24.293148 7.28376,10.594949 9.53389,21.643435 3.53554,33.01559 C 326.68512,79.299867 316.42857,85 316.42857,85 c 0,0 7.32601,-8.367866 8.57143,-13.571428 1.78122,-7.442266 2.07766,-16.473773 -2.14285,-22.857143 C 313.7499,34.797038 295.78694,25.620996 279.28572,25 269.38099,24.627252 258.05273,29.185719 252.14286,37.142857 246.56094,44.658434 244.8177,56.423799 248.57143,65 c 5.27154,12.04395 23.63436,21.048891 32.14286,31.071429 16.12579,18.995281 26.6812,34.788991 32.85714,58.928571 6.43931,25.169 4.59107,51.89749 3.57143,77.85715 C 315.86209,265.46495 305,330 305,330 Z m -52.85714,-22.14287 c 0,0 21.9404,-42.04551 26.42857,-65 4.47746,-22.89971 5.47381,-47.31781 0,-70 -5.02107,-20.80614 -13.96415,-42.19774 -29.28571,-57.14285 C 220.49928,107.17884 206.41113,98.782477 192.14286,98.571429 165.81925,98.182065 137.00232,110.61441 120,130.71429 110.15405,142.35403 107.83828,159.77211 108.57143,175 c 0.67009,13.91804 14.28571,39.28571 14.28571,39.28571 0,0 -22.03478,-22.51617 -24.999997,-37.14285 -3.711029,-18.30559 -0.585973,-40.1282 10.714287,-55 C 126.9313,97.98021 159.6583,81.975795 190,81.428571 c 20.66709,-0.372738 41.85965,11.050933 56.42857,25.714289 17.65241,17.76683 25.8202,44.00895 30.71429,68.57143 5.02675,25.22829 3.3964,52.02212 -2.14286,77.14285 -4.79995,21.76792 -26.42857,61.42857 -26.42857,61.42857 z"
         inkscape:connector-curvature="0"
         sodipodi:nodetypes="cssssssscssssssscccssssssssscssssssssscccsssssssscsssssssscccsssssscsssssscc" />
      <path
         id="path4228"
         style="fill:#65532d;fill-opacity:0.71910113;fill-rule:evenodd;stroke:none;stroke-width:1px;stroke-linecap:butt;stroke-linejoin:miter;stroke-opacity:1;filter:url(#filter4485)"
         d="m 296.78571,305.71429 c 0,0 6.44897,-34.63634 8.21429,-52.14286 2.40314,-23.83169 4.80137,-47.88581 3.21429,-71.78572 -0.84945,-12.79199 -2.69633,-25.70669 -6.78572,-37.85714 C 297.33566,131.76765 282.5,110 282.5,110 c 0,0 17.89898,20.8991 22.85714,33.21429 4.98757,12.38825 6.86546,25.96801 7.85715,39.28571 1.81442,24.36632 -0.82871,48.93493 -3.57143,73.21429 -1.98173,17.54282 -9.28572,52.14285 -9.28572,52.14285 z m 51.42858,0.35714 c 0,0 -6.02146,-33.70662 -7.85715,-50.71429 -1.45909,-13.51847 -3.18746,-27.13468 -2.5,-40.71428 0.74412,-14.69885 2.42632,-29.62997 7.14286,-43.57143 3.89139,-11.50244 17.14286,-32.14286 17.14286,-32.14286 0,0 -10.58891,23.13806 -13.92857,35.35714 -3.78228,13.83853 -6.10154,28.17022 -6.78572,42.5 -0.72248,15.13178 0.92491,30.33187 2.85714,45.35715 1.98032,15.39921 8.92858,45.71428 8.92858,45.71428 z m 50,1.07143 c 0,0 -10.7488,-25.18381 -12.85715,-38.57143 -1.98173,-12.58356 -2.02265,-25.6999 0.35715,-38.21429 2.3584,-12.40185 6.74744,-24.73635 13.57142,-35.35714 4.68707,-7.29491 11.4801,-13.1093 18.21429,-18.57143 6.36079,-5.15926 20.71429,-13.21428 20.71429,-13.21428 0,0 -13.31834,11.44249 -19.28572,17.85714 -6.23042,6.69741 -12.98545,11.68722 -17.5,19.64286 -5.70767,10.05817 -9.86312,22.88185 -11.78571,34.28571 -1.68271,9.981 -1.06085,20.39217 0.71428,30.35714 2.71358,15.23318 15,43.92857 15,43.92857 L 399.64286,307.5 Z m -156.1961,1.99342 c 0,0 17.03984,-29.40699 22.22336,-45.45686 5.19745,-16.09299 7.88998,-33.10542 8.5863,-50.00255 0.63325,-15.36669 -0.38146,-31.02384 -4.04061,-45.96194 -3.03501,-12.39014 -8.41649,-24.22409 -14.64722,-35.35534 -6.29981,-11.25466 -18.08557,-29.17187 -18.08557,-29.17187 0,0 16.08704,15.98975 23.23127,27.52656 7.21841,11.6566 11.32036,25.1853 14.28571,38.57143 3.48746,15.74304 4.96256,32.12278 3.92857,48.21429 -1.10048,17.12613 -5.4909,34.00992 -10.71428,50.35714 -4.73879,14.83063 -18.57143,42.85714 -18.57143,42.85714 z"
         inkscape:connector-curvature="0"
         sodipodi:nodetypes="cssscssscccssscssscccsssscssssccccsssscsssscc" />
    </g>
  </g>
  <g
     inkscape:groupmode="layer"
     id="layer4"
     inkscape:label="Horizon"
     style="opacity:1">
    <path
       style="fill:#000000;fill-opacity:1;fill-rule:evenodd;stroke:none;stroke-width:1px;stroke-linecap:butt;stroke-linejoin:miter;stroke-opacity:1;shape-rendering:crispEdges"
       d="m -9.2857143,891.64787 c 228.7025843,-21.66389 450.6832843,-17.83729 662.1428543,-5 l 6.42857,182.14283 -671.428567,-7.1428 z"
       id="path4686"
       inkscape:connector-curvature="0"
       sodipodi:nodetypes="cc"
       transform="translate(0,-572.36216)" />
    <path
       style="fill:url(#linearGradient4180);fill-opacity:1;fill-rule:evenodd;stroke:none;stroke-width:1px;stroke-linecap:butt;stroke-linejoin:miter;stroke-opacity:1"
       d="m 328.25195,303.84766 -131.92968,2.33203 c -0.67331,3.89752 -1.42477,8.99724 -1.86719,9.77148 -0.26148,0.4576 -0.33435,1.04138 -0.70703,1.41406 -1.92414,1.92414 -1.52694,-1.0813 -2.83008,2.82813 -0.22361,0.67082 0.1715,1.43509 0,2.12109 -0.0808,0.32338 -0.52213,0.42968 -0.70703,0.70703 -0.29235,0.43853 -0.41468,0.97554 -0.70703,1.41407 -0.1849,0.27735 -0.52214,0.43163 -0.70703,0.70898 -0.0878,0.13172 -1.36876,2.78282 -1.41407,2.82813 -0.16667,0.16667 -0.60162,-0.21082 -0.70703,0 -0.21082,0.42164 0,0.94265 0,1.41406 l 0,5.65625 c 0,0.15127 -0.10148,4.797 0,4.94922 0.29235,0.43853 1.04139,0.33436 1.41406,0.70703 0.16667,0.16667 -0.16666,0.54036 0,0.70703 0.37268,0.37268 0.97554,0.41467 1.41407,0.70703 0.27735,0.1849 0.40889,0.55796 0.70703,0.70703 0.21082,0.10541 0.49621,-0.1054 0.70703,0 0.29814,0.14908 0.47133,0.47329 0.70703,0.70899 0.2357,0.2357 0.55991,0.40889 0.70898,0.70703 0.21082,0.42163 -0.26148,1.02183 0,1.41406 0.3698,0.5547 1.04427,0.85935 1.41407,1.41406 0.26149,0.39223 -0.21082,0.99243 0,1.41407 0.14907,0.29814 0.55796,0.40888 0.70703,0.70703 0.151,0.30199 0,3.25562 0,3.53515 0,0.81081 0.18313,2.09564 0,2.82813 -0.37105,1.48423 -1.80389,2.50896 -2.83008,3.53515 l -0.70703,0.70704 c -0.2357,0.2357 -0.3908,0.60162 -0.70703,0.70703 -0.44721,0.14908 -0.99243,-0.21081 -1.41406,0 -0.42164,0.21082 0.21082,0.99437 0,1.41601 -0.14907,0.29814 -0.60163,0.39081 -0.70704,0.70703 -0.10789,0.32369 0,3.14048 0,3.53516 0,0.66384 -0.13505,3.13 0,3.53516 -0.26429,1.54044 1.17837,0.23562 1.41407,0.70703 0.21082,0.42164 -0.11433,0.95673 0,1.41406 -0.4262,1.27982 1.14532,1.31487 1.41406,2.12109 0,3.21895 -0.33341,0.0402 0.70703,2.1211 0.14018,0.28037 -0.14456,1.97654 0,2.12109 0.16666,0.16667 0.54232,-0.16666 0.70898,0 0.16667,0.16667 -0.0745,0.48342 0,0.70703 0.16667,0.5 0.33436,1.04335 0.70704,1.41602 0.16667,0.16667 0.54036,-0.16666 0.70703,0 0.16666,0.16667 -0.10541,0.49621 0,0.70703 0.14907,0.29814 0.55796,0.40888 0.70703,0.70703 0.21082,0.42163 -0.33333,1.08073 0,1.41406 0.60093,0.60093 1.61118,0.73421 2.12109,1.41407 0.28284,0.37713 0,0.94265 0,1.41406 l 0,1.41406 c 0,0.83524 0.14016,3.82171 0,4.24219 -0.10541,0.31623 -0.55796,0.40889 -0.70703,0.70703 -0.18676,0.37351 0.18676,1.04055 0,1.41406 -0.14907,0.29815 -0.55796,0.40889 -0.70703,0.70703 -0.0914,0.18282 0,3.74294 0,4.24414 0,0.17149 -0.0227,2.09836 0,2.1211 0.37268,0.37268 0.94265,0.47133 1.41406,0.70703 0.4714,0.2357 0.91406,0.54037 1.41406,0.70703 0.22361,0.0745 0.54037,-0.16666 0.70704,0 0.16666,0.16667 -0.10541,0.49621 0,0.70703 0.14907,0.29814 0.60162,0.3908 0.70703,0.70703 0.001,0.003 -6.7e-4,2.12042 0,2.1211 0.37268,0.37268 0.99242,0.39081 1.41406,0.70703 0.53333,0.4 0.85936,1.04426 1.41406,1.41406 0.19612,0.13074 0.49621,-0.10541 0.70703,0 0.29814,0.14907 0.42968,0.52213 0.70703,0.70703 0.43853,0.29235 0.97554,0.41468 1.41407,0.70703 0.27735,0.1849 0.40889,0.55796 0.70703,0.70703 0.66667,0.33333 1.42905,0.43022 2.12109,0.70703 1.61635,0.64655 1.87698,1.12502 3.53711,2.1211 0.45194,0.27116 0.94266,0.47133 1.41406,0.70703 0.47141,0.2357 0.91407,0.54036 1.41407,0.70703 0.22361,0.0745 0.54036,-0.16667 0.70703,0 0.16667,0.16667 -0.10541,0.49621 0,0.70703 0.14907,0.29814 0.55796,0.40889 0.70703,0.70703 0.0942,0.18845 0,3.92425 0,4.24414 0,0.23571 -0.10541,0.49622 0,0.70704 0.14907,0.29814 0.60162,0.3908 0.70703,0.70703 0.2236,0.67082 0,1.41398 0,2.12109 l 0,6.36328 c 0,0.4714 -0.11434,0.95673 0,1.41406 0.12782,0.51131 0.60367,0.89725 0.70703,1.41407 0.13868,0.69337 -0.2236,1.45222 0,2.12304 0.26874,0.80622 1.09843,1.33204 1.41406,2.1211 0.17507,0.43768 -0.21082,0.99242 0,1.41406 0.59628,1.19257 2.23185,1.63555 2.82813,2.82813 0.21082,0.42162 -0.26149,1.02183 0,1.41406 0.0439,1.99103 1.59405,0.17998 2.12109,0.70703 0.16667,0.16666 -0.16666,0.54037 0,0.70703 0.17015,0.17016 2.65798,-0.17015 2.82813,0 0.16667,0.16667 -0.16667,0.54036 0,0.70703 0.16667,0.16667 0.54036,-0.16667 0.70703,0 2.75965,2.75965 -0.16375,0.37952 0.70703,2.12109 0.14907,0.29814 0.55796,0.4089 0.70703,0.70704 0.33333,0.66666 0.3255,1.48195 0.70899,2.12109 0.34299,0.57166 1.01406,0.88073 1.41406,1.41406 0.31623,0.42164 0.41467,0.97553 0.70703,1.41407 0.65372,0.98057 1.51475,1.81951 2.12109,2.83007 0.12127,0.20212 -0.13075,0.51091 0,0.70703 0.3698,0.5547 1.07107,0.84241 1.41407,1.41407 0.38348,0.63914 0.25981,1.52481 0.70703,2.12109 0.31623,0.42164 1.04138,0.33435 1.41406,0.70703 0.60093,0.60093 0.9201,1.42956 1.41406,2.1211 1.36999,1.91799 2.93475,3.69509 4.24219,5.65625 0.29235,0.43853 0.39081,0.99242 0.70703,1.41406 0.4,0.53333 1.04426,0.85936 1.41406,1.41406 0.13074,0.19612 -0.16667,0.54231 0,0.70898 0.16666,0.16668 0.47133,0 0.70703,0 l 3.53711,0 14.84766,0 3.53711,0 c 0.47141,0 0.99242,-0.21082 1.41406,0 0,0.73152 -0.16674,0.97719 0.70703,1.41407 0.3774,0.1887 1.03667,-0.1887 1.41407,0 0.29814,0.14907 0.40889,0.55796 0.70703,0.70703 0.21082,0.10541 0.48342,-0.0745 0.70703,0 1,0.33333 1.7945,1.20734 2.82812,1.41406 1.02311,0.20462 3.21804,-0.25603 4.24219,0 1.02262,0.25566 1.82813,1.08072 2.82813,1.41406 0.39894,0.13298 1.65839,0 2.12304,0 l 4.24219,0 12.72656,0 7.7793,0 0.70703,0 c 0.2357,0 0.54036,0.16666 0.70703,0 0.16666,-0.16667 -0.16667,-0.54036 0,-0.70703 0.37268,-0.37268 0.94266,-0.47133 1.41406,-0.70703 0.94281,-0.4714 1.82813,-1.08073 2.82813,-1.41406 0.2236,-0.0745 0.48343,0.0745 0.70703,0 0.5,-0.16667 0.91406,-0.54036 1.41406,-0.70703 0.42422,-0.14141 2.97287,0 3.53711,0 1.13716,0 4.02245,-0.15446 4.94922,0 0.73521,0.12254 1.41398,0.47133 2.12109,0.70703 l 2.1211,0.70703 c 0.70711,0.2357 1.39021,0.56086 2.12109,0.70703 0.46225,0.0924 0.96685,-0.14907 1.41407,0 0.31623,0.10541 0.38365,0.62618 0.70703,0.70703 0.61276,0.15319 4.03808,0 4.95117,0 0.60784,0 5.23039,0.14195 5.65625,0 0.80623,-0.26874 1.33204,-1.09844 2.12109,-1.41406 0.43769,-0.17508 0.95673,0.11433 1.41406,0 0.51131,-0.12783 0.89726,-0.60367 1.41407,-0.70703 0.69338,-0.13868 1.46456,0.26261 2.12109,0 0.61898,-0.24759 0.79508,-1.16647 1.41406,-1.41406 0.65654,-0.26262 1.48865,0.31622 2.1211,0 0.47141,-0.23571 0.33435,-1.04334 0.70703,-1.41602 0.16667,-0.16666 0.47133,0 0.70703,0 0.4714,-0.2357 1.12367,-0.26851 1.41602,-0.70703 0.26148,-0.39224 -0.33333,-1.08073 0,-1.41406 0.74536,-0.74535 1.92424,-0.87175 2.82812,-1.41407 0.28583,-0.1715 0.42968,-0.52213 0.70703,-0.70703 0.43852,-0.29235 0.94265,-0.47132 1.41406,-0.70703 0.70711,-0.7071 1.3211,-1.52109 2.1211,-2.12109 0.18856,-0.14142 0.54036,0.16667 0.70703,0 0.33333,-0.33333 -0.21082,-0.99242 0,-1.41406 0.14907,-0.29814 0.55796,-0.40889 0.70703,-0.70704 0.33334,-0.66666 0.3737,-1.45442 0.70703,-2.12109 0.14907,-0.29814 0.60162,-0.39081 0.70703,-0.70703 0.14907,-0.44722 -0.26149,-1.02182 0,-1.41406 0.29235,-0.43853 1.04138,-0.33436 1.41407,-0.70703 0.37268,-0.37268 0.33435,-1.04139 0.70703,-1.41407 0.16666,-0.16666 0.60162,0.21082 0.70703,0 0,-0.90872 -0.0251,-1.3269 -0.0488,-1.58398 -0.0645,-0.26692 -0.0378,-0.40919 0,0 0.0737,0.30483 0.27002,0.65576 0.75586,0.16992 0.16667,-0.16667 -0.16667,-0.54036 0,-0.70703 0.37268,-0.37268 0.97553,-0.41664 1.41406,-0.70898 0.27735,-0.18491 0.40889,-0.55797 0.70703,-0.70704 0.21082,-0.10541 0.47133,0 0.70703,0 0.4714,0 0.95103,0.0775 1.41602,0 0.9586,-0.15977 1.99478,-0.20703 2.82812,-0.70703 0.45194,-0.27116 0.25511,-1.1429 0.70704,-1.41406 1.66517,-0.9991 2.63407,-1.50065 3.18945,-1.7207 0.32621,-0.34773 0.54194,-0.59663 1.05273,-1.10743 0.16666,-0.16667 0.51092,0.13075 0.70703,0 0.5547,-0.36979 0.88073,-1.01406 1.41407,-1.41406 0.42163,-0.31623 0.99242,-0.3908 1.41406,-0.70703 0.53333,-0.4 0.85936,-1.04426 1.41406,-1.41406 0.19612,-0.13075 0.60162,0.21082 0.70703,0 0.21082,-0.42164 -0.21082,-0.99242 0,-1.41406 0.73151,0 0.97719,0.16674 1.41407,-0.70703 0.22593,-0.45187 -0.18971,-2.25898 0,-2.82813 0.16667,-0.5 0.5792,-0.90275 0.70703,-1.41406 0.22866,-0.91466 -0.22866,-1.91542 0,-2.83008 0.12783,-0.51131 0.60366,-0.89725 0.70703,-1.41406 0.13867,-0.69338 -0.13868,-1.42773 0,-2.1211 0.10336,-0.51682 0.56224,-0.90729 0.70703,-1.41406 0.5379,-1.88264 0.52444,-3.87311 1.41602,-5.65625 0.61462,-1.22928 1.50645,-2.30588 2.12109,-3.53516 0.10541,-0.21081 -0.16667,-0.54037 0,-0.70703 0.37268,-0.37268 1.08482,-0.29548 1.41406,-0.70703 0.65849,-0.82311 0.78161,-1.9868 1.41406,-2.83008 0.14143,-0.18856 0.54036,0.16667 0.70703,0 l 0.70704,-1.41406 c 0.2357,0 0.54036,0.16667 0.70703,0 0.37267,-0.37268 0.41468,-0.97554 0.70703,-1.41406 0.1849,-0.27735 0.47133,-0.47133 0.70703,-0.70703 l 2.82813,-2.82813 c 0.4714,-0.4714 1.04426,-0.85936 1.41406,-1.41406 0.13074,-0.19612 0,-0.47133 0,-0.70703 0.2357,-0.4714 0.3908,-0.99243 0.70703,-1.41406 0.4,-0.53334 1.04426,-0.85937 1.41406,-1.41407 0.13074,-0.19611 -0.0745,-0.48343 0,-0.70703 0.33333,-1 1.08073,-1.82812 1.41406,-2.82812 0.0745,-0.22361 -0.0875,-0.48818 0,-0.70703 0.39148,-0.9787 1.02454,-1.85138 1.41602,-2.83008 0.17332,-0.43332 -0.0986,-4.35748 0,-4.94922 0.12777,-0.76661 0.90113,-2.76576 1.41406,-3.53516 0.1849,-0.27735 0.60162,-0.3908 0.70703,-0.70703 1.61807,-4.85423 -2.70755,3.29401 0.70703,-3.53515 0.14908,-0.29814 0.6262,-0.38366 0.70704,-0.70704 0.1715,-0.686 -0.22361,-1.45027 0,-2.12109 -2.06868,-5.31744 1.56639,-1.28904 2.12109,-2.12109 0.55229,-0.82843 0.60095,-2.72399 1.41406,-3.53711 0.16667,-0.16666 0.54036,0.16667 0.70703,0 0.60093,-0.60092 0.90417,-1.44123 1.41407,-2.1211 0.6,-0.8 1.52109,-1.32109 2.12109,-2.12109 0.31622,-0.42163 0.41468,-0.97553 0.70703,-1.41406 0.3698,-0.5547 1.11591,-0.81778 1.41406,-1.41406 0.33333,-0.66668 0.52626,-1.39799 0.70703,-2.1211 0.14966,-0.59864 0,-2.09396 0,-2.82812 l 0,-4.95118 0,-1.41406 c 0,-0.23571 -0.0745,-0.48342 0,-0.70703 0.16667,-0.5 0.54037,-0.91406 0.70704,-1.41406 0.14907,-0.44722 -0.14907,-0.96684 0,-1.41406 0.33333,-1 1.08073,-1.82813 1.41406,-2.82813 0.0745,-0.22361 -0.13074,-0.51091 0,-0.70703 0.3698,-0.5547 1.04426,-0.85936 1.41406,-1.41406 0.13074,-0.19612 0,-0.47133 0,-0.70703 0.2357,-0.47141 0.33631,-1.0414 0.70899,-1.41407 0.16667,-0.16667 0.57629,0.19611 0.70703,0 0.41345,-0.62018 0.37369,-1.45442 0.70703,-2.12109 0.14907,-0.29814 0.47133,-0.47133 0.70703,-0.70703 l 2.12109,-2.12305 c 1.62128,-1.62128 -0.29829,0.44744 1.41406,-2.12109 0.3698,-0.5547 1.11593,-0.81777 1.41407,-1.41407 0.10541,-0.2108 -0.10541,-0.49621 0,-0.70703 0.34771,-0.69541 1.06636,-0.71865 1.41406,-1.41406 0.10541,-0.21082 0,-0.47133 0,-0.70703 0,-0.70711 -0.31622,-1.48864 0,-2.12109 0.23571,-0.47141 1.04138,-0.33435 1.41406,-0.70703 0.16666,-0.16668 0,-0.47134 0,-0.70704 0,-0.94281 -0.22867,-1.91347 0,-2.82812 0.0572,-0.22867 0.49622,0.1054 0.70703,0 0.29815,-0.14908 0.60162,-0.3908 0.70704,-0.70703 0.14906,-0.44721 -0.14907,-0.96685 0,-1.41407 0.10541,-0.31623 0.47133,-0.47133 0.70703,-0.70703 0.2357,-0.47141 0.5792,-0.90275 0.70703,-1.41406 0.11433,-0.45732 -0.21082,-0.99437 0,-1.41601 0.1054,-0.21082 0.60162,0.21082 0.70703,0 0.21699,-0.43398 -0.21917,-3.09683 0,-3.53516 0.14907,-0.29814 0.55796,-0.40889 0.70703,-0.70703 0.1076,-0.2152 0,-1.80265 0,-2.1211 l 0,-1.41406 c 0,-0.38319 0.59911,-7.72889 0.71289,-10.7207 -38.5592,-0.93749 -77.40299,-1.38281 -116.52344,-1.38281 z m 53.94727,144.02539 c -3.47248,3.70154 2.43178,-0.96354 0,0 z"
       id="path4172"
       inkscape:connector-curvature="0"
       sodipodi:nodetypes="ccssscsscsssssscsscssscscscsscsscscsccscscscscscssssccscsccsscccsssscsscsscsssssccsssccccssssscssssssssscccsccscssscscsscccscssccssssscscsssssssccccssscssscscscscccsscsssssccccssscscssccscccscccsssscccscccccsscccscsssscsscsccsccccsssccscsssccscccscscssssscsccc" />
  </g>
  <g
     inkscape:groupmode="layer"
     id="layer5"
     inkscape:label="Rabbit Hole"
     sodipodi:insensitive="true">
    <path
       style="fill:#1f1409;fill-opacity:1;fill-rule:evenodd;stroke:none;stroke-width:1px;stroke-linecap:butt;stroke-linejoin:miter;stroke-opacity:1"
       d="m 517.14286,340.71429 c -10.03561,0.15329 -17.91763,10.03467 -27.85715,11.42857 C 482.88026,353.04115 475.21097,346.16822 470,350 c -7.0348,5.17289 -10.77515,19.16488 -5,25.71429 4.73464,5.36939 16.08608,-6.19355 21.42857,-1.42858 3.73569,3.33186 -2.99155,11.63497 0.71429,15 7.23562,6.57018 19.92592,-4.24209 29.28571,-1.42857 8.4827,2.54987 12.57287,15.90025 21.42857,15.71429 13.71796,-0.28806 33.307,-9.27999 36.64286,-22.58929 1.32254,-5.27662 -12.40472,-12.88927 -10.92857,-18.125 1.90021,-6.73984 18.48964,-5.27099 17.14286,-12.14285 -1.41066,-7.1978 -15.15374,-1.20203 -21.42858,-5 -7.79896,-4.72047 -8.92205,-22.52281 -17.85714,-20.71429 -7.60133,1.53856 -0.15944,18.76955 -7.14286,22.14286 -5.49532,2.65449 -11.0407,-6.52177 -17.14285,-6.42857 z"
       id="path4152"
       inkscape:connector-curvature="0"
       sodipodi:nodetypes="sssssssssssssss" />
    <path
       style="fill:#000000;fill-opacity:0.19459462;fill-rule:evenodd;stroke:none;stroke-width:1px;stroke-linecap:butt;stroke-linejoin:miter;stroke-opacity:1;filter:url(#filter4269)"
       d="m 518.07031,352.41797 c -0.20511,0.008 -0.41167,0.0249 -0.61914,0.0508 -6.16606,0.76956 -9.11747,9.37854 -15.15234,10.85937 -8.75227,2.14763 -17.91612,-5.47181 -26.76953,-3.78906 -3.96915,0.75441 -13.77292,6.48678 -17.75927,9.20143 -0.14262,3.61683 4.04339,9.33639 6.16931,11.74732 4.73464,5.36939 10.25161,-0.89135 15.5941,3.87362 3.73569,3.33186 3.9033,1.5587 7.60914,4.92373 7.23562,6.57018 19.92536,-4.24126 29.28515,-1.42774 8.4827,2.54987 12.57399,15.90081 21.42969,15.71485 13.71796,-0.28806 28.80672,-12.40555 32.14258,-25.71485 1.32254,-5.27662 -1.89347,-4.81452 -0.41732,-10.05025 0.2474,-0.87751 -3.31935,-3.91236 -2.64595,-4.5481 -0.74509,-0.39738 -3.39518,-3.41278 -4.02853,-3.72001 -5.30225,-2.57206 -10.55284,-7.16015 -16.41601,-6.5664 -4.11149,0.41636 -6.24352,6.3876 -10.35352,6.81836 -6.44615,0.67561 -11.70977,-7.60795 -18.06836,-7.37305 z"
       id="path4182"
       inkscape:connector-curvature="0"
       sodipodi:nodetypes="ccsscssssssscssscc" />
    <path
       style="fill:#000000;fill-opacity:0.27027025;fill-rule:evenodd;stroke:none;stroke-width:1px;stroke-linecap:butt;stroke-linejoin:miter;stroke-opacity:1;filter:url(#filter4289)"
       d="m 550.78516,369.64062 c -5.43819,-0.2233 -8.46384,8.14454 -13.88868,8.58594 -5.71816,0.46527 -10.1737,-6.48044 -15.91015,-6.56445 -5.94045,-0.087 -10.72697,6.27923 -16.66797,6.3125 -3.67497,0.0206 -6.68179,-3.94457 -10.35352,-3.78906 -2.34524,0.0993 -8.68286,4.03136 -8.68286,4.03136 0.0829,3.92859 -17.10493,18.17687 -14.22608,20.79097 7.23562,6.57018 32.47651,7.426 41.8363,10.23952 8.4827,2.54987 23.71092,0.16768 32.56662,-0.0183 10.02933,-0.21061 16.7184,-9.57604 23.08452,-18.27569 0,0 -4.93773,-10.45615 -7.15076,-13.48468 -2.59267,-3.54807 -6.21672,-7.64784 -10.60742,-7.82813 z"
       id="path4203"
       inkscape:connector-curvature="0"
       sodipodi:nodetypes="ssssscssscss" />
    <path
       style="fill:#000000;fill-opacity:1;fill-rule:evenodd;stroke:#000000;stroke-width:1px;stroke-linecap:butt;stroke-linejoin:miter;stroke-opacity:1"
       d="m 590.43359,319.31055 -132.93554,6.00976 -8.13086,95.8125 153.08789,-1.76758 z m -47.41797,5.57226 c 7.51424,0.48294 8.95801,16.40659 16.26954,20.83203 6.27484,3.79797 20.01902,-2.1978 21.42968,5 1.34678,6.87186 -15.24236,5.40274 -17.14257,12.14258 -1.47615,5.23573 10.40192,10.96082 9.07938,16.23744 -3.33586,13.3093 -21.07627,24.18935 -34.79423,24.47741 -8.8557,0.18596 -12.94699,-13.16498 -21.42969,-15.71485 -9.35979,-2.81352 -22.04953,7.99792 -29.28515,1.42774 -3.70584,-3.36503 3.02084,-11.66814 -0.71485,-15 -5.34249,-4.76497 -16.69309,6.79907 -21.42773,1.42968 -5.77515,-6.54941 -2.0348,-20.54195 5,-25.71484 5.21097,-3.83178 12.87971,3.04087 19.28516,2.14258 9.93952,-1.3939 17.82181,-11.27445 27.85742,-11.42774 6.10215,-0.0932 11.64726,9.08223 17.14258,6.42774 6.98342,-3.37331 -0.45876,-20.60402 7.14257,-22.14258 0.55845,-0.11303 1.08695,-0.14938 1.58789,-0.11719 z"
       id="path4248"
       inkscape:connector-curvature="0"
       sodipodi:nodetypes="ccccccssssssssssssssc" />
    <path
       style="fill:#522806;fill-opacity:1;fill-rule:evenodd;stroke:none;stroke-width:1px;stroke-linecap:butt;stroke-linejoin:miter;stroke-opacity:1"
       d="m 579.82756,328.85593 c 0,0 -3.8138,-15.24034 -2.65165,-22.8042 0.37252,-2.42458 1.1093,-5.16095 3.00521,-6.71751 1.6351,-1.34244 4.13245,-1.91798 6.18718,-1.41422 2.02987,0.49767 3.61346,2.32702 4.77297,4.06587 0.96148,1.44188 1.53978,3.21745 1.59099,4.94974 0.24454,8.27139 -6.18718,24.04164 -6.18718,24.04164 0,0 -1.53115,0.99752 -4.29626,0.29105 -1.93974,-0.49559 -2.42126,-2.41237 -2.42126,-2.41237 z"
       id="path4293"
       inkscape:connector-curvature="0"
       sodipodi:nodetypes="cssssscsc" />
    <path
       style="fill:#000000;fill-opacity:0.25135133;fill-rule:evenodd;stroke:none;stroke-width:1px;stroke-linecap:butt;stroke-linejoin:miter;stroke-opacity:1;filter:url(#filter4324)"
       d="m 584.99609,297.75195 c 0,0 0.76359,4.63507 0.92969,6.97461 0.22952,3.23289 0.35335,6.49237 0.0898,9.72266 -0.406,4.9771 -2.56445,14.75976 -2.56445,14.75976 l -0.77929,2.14258 c 2.48806,0.5011 3.87304,-0.375 3.87304,-0.375 0,0 6.43204,-15.76962 6.1875,-24.04101 -0.0512,-1.73229 -0.63031,-3.50734 -1.5918,-4.94922 -1.1595,-1.73885 -2.74161,-3.56874 -4.77148,-4.06641 -0.441,-0.10812 -0.90417,-0.15619 -1.37305,-0.16797 z"
       id="path4299"
       inkscape:connector-curvature="0"
       sodipodi:nodetypes="csscccsssc" />
    <path
       style="fill:#fcfa3e;fill-opacity:0.3756757;fill-rule:evenodd;stroke:none;stroke-width:1px;stroke-linecap:butt;stroke-linejoin:miter;stroke-opacity:1;filter:url(#filter4366)"
       d="m 582.39082,299.15744 c 0,0 -2.54681,2.23039 -3.27036,3.71231 -0.90764,1.85895 -1.09226,4.03088 -1.14905,6.0988 -0.0865,3.14899 1.23743,9.36916 1.23743,9.36916 0,0 -0.268,-6.61883 0.0884,-9.89949 0.18535,-1.70615 0.50914,-3.41298 1.06066,-5.03814 0.50396,-1.485 2.03292,-4.24264 2.03292,-4.24264 z"
       id="path4328"
       inkscape:connector-curvature="0"
       sodipodi:nodetypes="csscssc" />
    <path
       style="fill:#15370e;fill-opacity:1;fill-rule:evenodd;stroke:none;stroke-width:1px;stroke-linecap:butt;stroke-linejoin:miter;stroke-opacity:1"
       d="m 583.98181,299.24583 c 0,0 0.86407,-7.31776 0.53033,-10.96016 -0.32864,-3.58679 -2.47487,-10.51821 -2.47487,-10.51821 0,0 3.30767,6.23208 4.06587,9.63433 0.32709,1.46776 0.17677,4.50781 0.17677,4.50781 0,0 1.70479,-5.4236 1.67938,-8.22012 -0.0282,-3.10928 -0.68824,-6.30039 -2.03293,-9.104 -0.48951,-1.0206 -2.12132,-2.65165 -2.12132,-2.65165 l 3.53553,2.38648 1.41422,-3.0052 c 0,0 -0.15567,2.47635 -0.0884,3.71231 0.16961,3.11636 1.23743,9.28078 1.23743,9.28078 0,0 2.67243,-4.73577 3.35876,-7.33624 0.34716,-1.31536 0.35355,-4.06586 0.35355,-4.06586 l 0.70711,3.71231 2.56326,-1.14905 c 0,0 -1.78457,2.06253 -2.38648,3.27037 -0.90626,1.81856 -1.76777,5.83363 -1.76777,5.83363 l 3.18198,-2.56326 c 0,0 -1.41406,1.94449 -1.06066,2.91682 0.22096,0.60793 1.67938,0.97227 1.67938,0.97227 0,0 -1.99133,0.13841 -2.82843,0.61872 -1.32023,0.75752 -2.29599,2.06234 -3.09359,3.35875 -0.92336,1.50082 -1.85615,4.94975 -1.85615,4.94975 0,0 2.57024,-1.80295 4.06586,-1.94454 1.72882,-0.16367 3.74464,0.16715 5.03813,1.32582 0.917,0.82142 1.32583,3.44715 1.32583,3.44715 0,0 -1.44163,-1.89073 -2.47487,-2.38649 -1.04445,-0.50114 -2.3042,-0.63084 -3.44715,-0.44194 -1.52103,0.25139 -3.08185,0.92537 -4.15425,2.03293 -0.89897,0.92844 -1.59099,3.53554 -1.59099,3.53554 l -2.03293,0.7071 z"
       id="path4295"
       inkscape:connector-curvature="0"
       sodipodi:nodetypes="cscscsscccscscccsccscsscsscsssccc" />
  </g>
</svg>
